HIERARCHY
ROOT Hips
{
 OFFSET 0.000000 0.000000 0.000000
 CHANNELS 6 Xposition Yposition Zposition Yrotation Xrotation Zrotation
 JOINT Chest
 {
  OFFSET 0.000000 9.585900 0.002600
  CHANNELS 3 Yrotation Xrotation Zrotation
  JOINT Chest2
  {
   OFFSET 0.000000 9.601200 -0.005300
   CHANNELS 3 Yrotation Xrotation Zrotation
   JOINT Chest3
   {
    OFFSET 0.000000 9.561800 0.000000
    CHANNELS 3 Yrotation Xrotation Zrotation
    JOINT Chest4
    {
     OFFSET 0.000000 9.552100 0.000000
     CHANNELS 3 Yrotation Xrotation Zrotation
     JOINT Neck
     {
      OFFSET 0.000000 14.453000 0.000000
      CHANNELS 3 Yrotation Xrotation Zrotation
      JOINT Head
      {
       OFFSET 0.000000 8.936500 -0.011300
       CHANNELS 3 Yrotation Xrotation Zrotation
       End Site
       {
        OFFSET 0.000000 17.073600 -0.006000
       }
      }
     }
     JOINT RightCollar
     {
      OFFSET -2.921100 9.558500 0.000000
      CHANNELS 3 Yrotation Xrotation Zrotation
      JOINT RightShoulder
      {
       OFFSET -13.519700 0.000000 0.000000
       CHANNELS 3 Yrotation Xrotation Zrotation
       JOINT RightElbow
       {
        OFFSET 0.000000 -29.696600 0.000000
        CHANNELS 3 Yrotation Xrotation Zrotation
        JOINT RightWrist
        {
         OFFSET 0.000000 -24.004700 0.000000
         CHANNELS 3 Yrotation Xrotation Zrotation
         End Site
         {
          OFFSET 0.000000 -17.728500 0.000000
         }
        }
       }
      }
     }
     JOINT LeftCollar
     {
      OFFSET 2.921100 9.558500 0.000000
      CHANNELS 3 Yrotation Xrotation Zrotation
      JOINT LeftShoulder
      {
       OFFSET 13.519700 0.000000 0.000000
       CHANNELS 3 Yrotation Xrotation Zrotation
       JOINT LeftElbow
       {
        OFFSET 0.000000 -29.696600 0.000000
        CHANNELS 3 Yrotation Xrotation Zrotation
        JOINT LeftWrist
        {
         OFFSET 0.000000 -24.004700 0.000000
         CHANNELS 3 Yrotation Xrotation Zrotation
         End Site
         {
          OFFSET 0.000000 -17.728500 0.000000
         }
        }
       }
      }
     }
    }
   }
  }
 }
 JOINT RightHip
 {
  OFFSET -7.771700 -0.012900 -0.001300
  CHANNELS 3 Yrotation Xrotation Zrotation
  JOINT RightKnee
  {
   OFFSET 0.000000 -40.869800 0.001200
   CHANNELS 3 Yrotation Xrotation Zrotation
   JOINT RightAnkle
   {
    OFFSET 0.000000 -39.717900 0.002100
    CHANNELS 3 Yrotation Xrotation Zrotation
    JOINT RightToe
    {
     OFFSET 0.000000 -4.965400 11.033500
     CHANNELS 3 Yrotation Xrotation Zrotation
     End Site
     {
      OFFSET 0.000000 -1.423100 5.872300
     }
    }
   }
  }
 }
 JOINT LeftHip
 {
  OFFSET 7.771700 -0.012900 -0.001300
  CHANNELS 3 Yrotation Xrotation Zrotation
  JOINT LeftKnee
  {
   OFFSET 0.000000 -40.869800 0.001200
   CHANNELS 3 Yrotation Xrotation Zrotation
   JOINT LeftAnkle
   {
    OFFSET 0.000000 -39.717900 0.002100
    CHANNELS 3 Yrotation Xrotation Zrotation
    JOINT LeftToe
    {
     OFFSET 0.000000 -4.965400 11.033500
     CHANNELS 3 Yrotation Xrotation Zrotation
     End Site
     {
      OFFSET 0.000000 -1.423100 5.872300
     }
    }
   }
  }
 }
}
MOTION
Frames: 12
Frame Time: 0.008333
0.000000 85.388000 0.000000 0.000000 -5.767877 0.000000 0.000000 11.653817 0.000000 0.000000 -5.885947 0.000000 0.000000 -0.000000 0.000000 0.000000 -0.000000 0.000000 0.000000 12.528835 0.000000 0.000000 0.711642 0.000000 0.000000 -0.000000 0.000000 0.000000 0.000000 -90.000000 0.000000 -2.309062 0.000000 0.000000 2.309062 0.000000 0.000000 -0.000000 0.000000 0.000000 -0.000000 90.000000 0.000000 -2.309062 0.000000 0.000000 2.309062 0.000000 0.000000 8.520406 0.000000 0.000000 1.905762 0.000000 -0.000000 -4.658285 0.000000 0.000000 -0.000000 0.000000 0.000000 8.520406 0.000000 0.000000 1.905762 0.000000 -0.000000 -4.658285 0.000000 0.000000 -0.000000 0.000000
-28.371102 57.911317 13.083052 178.911384 -51.204258 -3.810541 2.960323 22.331922 2.497160 1.523736 12.776049 1.289547 1.963548 15.964110 1.677503 1.490614 12.736045 1.303216 -3.516319 15.325787 4.962404 -8.362503 -6.826874 10.536695 6.986542 3.685564 0.508151 -9.349290 -27.012168 7.414881 -69.648034 -43.135616 88.973291 -0.247192 -25.178563 -43.948875 -11.096062 1.630090 -0.376968 2.231923 -27.756510 -3.228529 66.539599 -57.876350 -73.483112 9.676698 -22.505265 30.029434 2.937309 -20.288826 -3.487349 -34.746538 73.700611 -38.767539 5.702609 -14.447094 11.161786 -0.038920 -0.053519 -0.007754 -6.795233 -17.895745 5.407511 86.714694 82.922148 85.519397 0.778086 -21.961460 -17.036657 0.062353 0.030886 0.040350
-28.372445 57.912580 13.082927 178.922455 -51.238765 -3.827986 2.942196 22.329492 2.498254 1.501542 12.749187 1.291318 1.966540 15.989940 1.676738 1.490404 12.739012 1.309730 -3.378351 15.413604 4.939983 -8.088085 -6.683779 10.436380 6.959065 3.731051 0.503961 -9.508151 -27.027746 7.475045 -70.095708 -42.627252 89.768868 -0.269193 -25.461857 -44.359669 -11.095702 1.664236 -0.380294 2.410581 -27.706247 -3.328935 67.181840 -57.771002 -74.246768 9.813860 -22.848984 30.474564 2.927380 -20.250747 -3.479562 -34.756392 73.694475 -38.772478 5.711459 -14.450086 11.154671 -0.031902 -0.054553 -0.007932 -6.798261 -17.863012 5.413204 86.724090 82.921923 85.529608 0.775760 -21.955794 -17.032573 0.060430 0.027132 0.036649
-28.372784 57.916460 13.080935 178.942166 -51.296859 -3.860864 2.919327 22.319413 2.507951 1.516171 12.809074 1.297056 1.945004 15.963278 1.683616 1.499400 12.757503 1.305068 -3.223072 15.478015 4.921101 -7.770655 -6.556050 10.311946 6.917618 3.755349 0.511763 -9.636615 -27.042495 7.524196 -70.542344 -42.207874 90.522234 -0.272108 -25.715854 -44.752788 -11.108690 1.679839 -0.366734 2.595249 -27.654242 -3.430465 67.750874 -57.647193 -74.954004 9.938343 -23.173471 30.903249 2.909904 -20.188832 -3.463392 -34.733578 73.693637 -38.747190 5.721738 -14.448493 11.150409 -0.037855 -0.057824 -0.008565 -6.807929 -17.803942 5.422817 86.739930 82.918112 85.550381 0.772248 -21.949651 -17.033328 0.058294 0.020792 0.033514
-28.374217 57.917291 13.081380 178.952745 -51.335409 -3.882521 2.911325 22.324997 2.519141 1.512177 12.807821 1.302307 1.921857 15.930023 1.698903 1.502865 12.783560 1.299731 -3.042004 15.559722 4.873539 -7.416628 -6.446242 10.165362 6.885441 3.808188 0.510367 -9.774328 -27.056026 7.579222 -70.954280 -41.879907 91.232275 -0.257491 -25.937822 -45.138025 -11.107218 1.716947 -0.378541 2.766779 -27.603301 -3.523486 68.271880 -57.508504 -75.626890 10.045857 -23.482931 31.323868 2.903369 -20.142200 -3.456953 -34.686141 73.691103 -38.693194 5.720538 -14.455124 11.150398 -0.045615 -0.051537 -0.012692 -6.814393 -17.765092 5.429419 86.768119 82.921104 85.588401 0.769891 -21.949497 -17.037891 0.067528 0.015413 0.031906
-28.375429 57.917050 13.082829 178.962295 -51.367571 -3.906310 2.904596 22.324622 2.532999 1.507268 12.807745 1.307329 1.918382 15.929455 1.702808 1.495331 12.774905 1.308391 -2.846806 15.632831 4.818143 -7.033547 -6.353144 9.998572 6.851882 3.861101 0.513566 -9.920883 -27.066106 7.637431 -71.341104 -41.642055 91.902524 -0.228178 -26.123685 -45.514366 -11.104564 1.760477 -0.378012 2.938416 -27.564759 -3.625773 68.763314 -57.364496 -76.278216 10.153381 -23.773356 31.728879 2.897189 -20.105483 -3.443428 -34.661032 73.688526 -38.663386 5.725687 -14.463778 11.149275 -0.057781 -0.044636 -0.015120 -6.823168 -17.736156 5.440577 86.806386 82.927932 85.635625 0.772781 -21.945205 -17.045427 0.072656 0.010366 0.032597
-28.377463 57.916752 13.084407 178.972021 -51.400335 -3.926312 2.896893 22.325904 2.544000 1.491845 12.774680 1.312934 1.930289 15.978002 1.699598 1.489595 12.766078 1.314833 -2.643643 15.683584 4.767325 -6.630881 -6.273886 9.814424 6.836786 3.892391 0.513499 -10.103636 -27.061853 7.709065 -71.712964 -41.484919 92.544353 -0.183972 -26.277213 -45.881810 -11.106391 1.795588 -0.354448 3.112288 -27.541291 -3.737497 69.228706 -57.217049 -76.903654 10.270546 -24.042421 32.107038 2.893568 -20.068114 -3.434347 -34.640437 73.684458 -38.636638 5.725748 -14.467777 11.150231 -0.044741 -0.042184 -0.016400 -6.831703 -17.706095 5.442886 86.826691 82.928699 85.664416 0.779311 -21.940493 -17.053719 0.067210 0.010789 0.033257
-28.380187 57.915024 13.087303 178.977987 -51.422451 -3.939980 2.888153 22.316928 2.551039 1.489836 12.774599 1.318622 1.930493 15.993202 1.697939 1.491125 12.774418 1.312444 -2.434732 15.714335 4.724025 -6.219961 -6.201884 9.619111 6.816624 3.903885 0.520794 -10.290501 -27.043721 7.780989 -72.074158 -41.402420 93.174839 -0.130068 -26.409763 -46.255222 -11.106118 1.809229 -0.342860 3.262610 -27.519644 -3.816634 69.668374 -57.054243 -77.507085 10.385889 -24.295911 32.467580 2.893680 -20.041639 -3.429124 -34.613266 73.679111 -38.604774 5.722490 -14.470179 11.153371 -0.049251 -0.035670 -0.018017 -6.836681 -17.686470 5.441313 86.829874 82.927696 85.678985 0.780144 -21.938442 -17.060885 0.071541 0.011603 0.033280
-28.383269 57.913116 13.090637 178.983119 -51.442784 -3.951136 2.878774 22.305454 2.555925 1.489770 12.773913 1.325174 1.927342 15.996405 1.705487 1.489109 12.774895 1.318407 -2.223759 15.765212 4.658803 -5.809490 -6.125226 9.421908 6.753972 3.947041 0.549414 -10.415704 -27.027839 7.812293 -72.433505 -41.387637 93.805007 -0.076657 -26.530597 -46.646812 -11.104880 1.841062 -0.353874 3.414895 -27.501400 -3.891486 70.075147 -56.869618 -78.090382 10.496145 -24.542737 32.821286 2.895813 -20.016899 -3.426143 -34.587257 73.672287 -38.573519 5.722327 -14.472968 11.162463 -0.047861 -0.029581 -0.023900 -6.846349 -17.671374 5.432500 86.855986 82.920199 85.713219 0.785703 -21.932142 -17.066864 0.072364 0.010090 0.029405
-28.383838 57.915838 13.091026 178.971980 -51.497091 -3.964115 2.891172 22.325824 2.579856 1.490588 12.772020 1.331580 1.922834 15.996541 1.714399 1.495096 12.734041 1.345344 -2.028699 15.864510 4.571886 -5.405220 -6.033157 9.230720 6.725374 4.038666 0.536942 -10.598644 -26.996892 7.877706 -72.802870 -41.425669 94.439763 -0.021539 -26.644177 -47.058229 -11.109575 1.914031 -0.353786 3.584116 -27.482130 -4.005783 70.440885 -56.666673 -78.645513 10.603936 -24.786801 33.171247 2.901403 -19.960924 -3.402798 -34.578326 73.663950 -38.558716 5.719715 -14.468119 11.163301 -0.047469 -0.030693 -0.024263 -6.842413 -17.615909 5.442393 86.854678 82.917783 85.716526 0.792654 -21.925952 -17.071790 0.067919 0.006519 0.028002
-28.386008 57.915295 13.094413 178.964253 -51.525361 -3.969675 2.896221 22.320541 2.591653 1.491799 12.769352 1.337290 1.924940 15.955622 1.736138 1.491791 12.769320 1.337270 -1.831940 15.936028 4.516132 -5.013998 -5.924366 9.051917 6.708638 4.090763 0.545204 -10.785511 -26.954595 7.942237 -73.184267 -41.498481 95.078949 0.047038 -26.751778 -47.488103 -11.112455 1.955363 -0.358787 3.732463 -27.465728 -4.071323 70.766597 -56.452811 -79.165800 10.712950 -25.022444 33.518420 2.908200 -19.931495 -3.392758 -34.558195 73.655175 -38.538242 5.739480 -14.470670 11.163395 -0.043186 -0.027278 -0.021549 -6.841375 -17.589336 5.439957 86.862780 82.907620 85.729360 0.798963 -21.924179 -17.076474 0.064676 0.008730 0.025050
-28.389132 57.913449 13.099409 178.963614 -51.541816 -3.973657 2.896186 22.320372 2.595822 1.488940 12.751396 1.341425 1.927352 15.952420 1.742685 1.491969 12.786156 1.335066 -1.641673 15.991973 4.476279 -4.645499 -5.806636 8.891938 6.701427 4.116758 0.561532 -10.968485 -26.901679 8.000395 -73.570791 -41.590835 95.714635 0.132475 -26.852842 -47.916101 -11.109010 1.978927 -0.332450 3.885086 -27.453422 -4.151912 71.044454 -56.244825 -79.635733 10.843019 -25.248434 33.853839 2.914711 -19.913946 -3.394032 -34.550528 73.649341 -38.519710 5.716059 -14.472117 11.165736 -0.053233 -0.023609 -0.022750 -6.845187 -17.575850 5.427542 86.810892 82.899317 85.695926 0.802865 -21.917746 -17.092498 0.072991 0.011203 0.024337
